<?xml version="1.0" standalone="no"?>
<!DOCTYPE svg PUBLIC "-//W3C//DTD SVG 20010904//EN"
 "http://www.w3.org/TR/2001/REC-SVG-20010904/DTD/svg10.dtd">
<svg version="1.0" xmlns="http://www.w3.org/2000/svg"
 width="512.000000pt" height="1108.000000pt" viewBox="0 0 512.000000 1108.000000"
 preserveAspectRatio="xMidYMid meet">

<g transform="translate(0.000000,1108.000000) scale(0.100000,-0.100000)"
fill="#000000" stroke="none">
<path d="M2745 11028 c-295 -97 -303 -99 -398 -103 -129 -6 -251 -15 -256 -20
-2 -3 -10 0 -18 6 -8 7 -13 8 -13 1 0 -5 -21 -13 -47 -17 -48 -7 -180 -54
-713 -250 -182 -67 -324 -114 -329 -110 -2 3 8 9 23 14 14 6 26 15 26 21 0 6
4 9 9 6 9 -6 61 48 61 65 0 6 -7 18 -16 27 -15 14 -15 17 0 27 9 7 16 19 16
28 0 18 -30 31 -43 18 -6 -6 -17 -2 -30 10 -16 14 -29 18 -50 13 l-29 -6 17
26 c28 42 -8 96 -56 83 -14 -4 -19 0 -19 14 0 15 7 19 35 19 19 0 35 5 35 10
0 6 -20 10 -44 10 -46 0 -56 -11 -56 -68 0 -20 3 -22 40 -16 36 6 40 4 40 -14
0 -29 -17 -37 -46 -21 -13 7 -27 9 -31 5 -14 -13 14 -41 48 -48 29 -5 27 -6
-11 -4 -25 2 -53 6 -62 10 -9 4 -21 5 -27 2 -5 -4 -65 -9 -133 -12 -68 -3
-161 -7 -208 -9 -47 -2 -166 -10 -265 -19 -98 -9 -183 -16 -187 -16 -4 0 -8
-723 -8 -1606 0 -1034 3 -1603 10 -1599 5 3 47 -52 93 -122 46 -70 92 -135
102 -143 10 -8 38 -15 62 -15 50 0 54 -9 13 -30 -31 -16 -60 -20 -60 -7 0 4
-12 13 -28 20 -16 7 -42 38 -67 79 -21 38 -58 97 -82 133 l-43 65 0 -198 0
-197 58 1 c31 0 122 -1 202 -4 110 -4 152 -2 173 8 39 20 33 2 -15 -42 -24
-21 -101 -96 -173 -168 -72 -71 -156 -150 -188 -174 -50 -38 -57 -48 -57 -77
0 -19 2 -34 5 -34 2 0 35 23 72 51 37 28 95 65 128 82 57 29 68 31 220 38 179
9 228 2 380 -51 190 -67 294 -143 410 -296 66 -87 108 -136 248 -288 144 -157
190 -249 168 -333 -13 -48 -48 -69 -128 -76 -51 -5 -51 -5 -66 32 l-14 36 -18
-40 c-14 -31 -19 -36 -24 -23 -6 16 -9 16 -33 -6 -20 -19 -29 -42 -39 -96 -13
-77 -25 -93 -45 -65 -7 10 -19 15 -27 12 -24 -9 -60 22 -53 46 3 12 0 27 -6
34 -18 22 -27 14 -18 -16 8 -29 7 -29 -17 -20 -13 5 -29 7 -34 4 -17 -11 5 30
23 43 22 16 23 41 3 48 -8 4 -13 10 -10 14 3 4 -3 11 -12 14 -24 9 -37 -16
-16 -31 16 -12 16 -13 0 -13 -20 0 -20 -1 -8 -34 10 -25 10 -25 -37 -19 -66 8
-115 5 -123 -8 -4 -7 -12 -3 -22 11 -12 17 -22 21 -41 16 -14 -3 -26 -2 -26 3
0 5 -9 11 -19 14 -15 3 -21 -2 -26 -21 l-6 -26 -25 29 c-13 15 -27 25 -31 22
-4 -4 2 -14 13 -22 10 -8 13 -15 7 -15 -9 0 -10 -7 -3 -26 13 -32 12 -37 0
-29 -6 3 -13 -1 -16 -10 -5 -13 -10 -11 -24 12 -9 15 -33 37 -53 48 -21 11
-37 23 -37 27 0 18 -28 6 -34 -14 -4 -18 -8 -20 -17 -11 -9 9 -9 16 0 27 7 8
10 20 6 26 -4 6 1 17 10 24 16 12 16 13 1 19 -9 4 -16 2 -16 -2 0 -5 -17 -7
-38 -4 -31 3 -42 -1 -69 -26 -37 -36 -49 -38 -56 -11 -3 14 -14 20 -31 20 -24
0 -25 -2 -14 -20 7 -11 16 -20 20 -20 5 0 8 -7 8 -15 0 -17 -16 -21 -22 -5 -2
6 -8 -6 -14 -25 -9 -30 -9 -35 2 -31 21 8 17 -28 -5 -48 -11 -10 -25 -15 -30
-11 -6 3 -11 -1 -11 -9 0 -8 -5 -18 -12 -22 -7 -5 -8 -3 -3 6 6 9 4 11 -4 6
-7 -5 -10 -14 -7 -22 3 -8 -1 -14 -8 -14 -16 0 -29 -53 -15 -58 14 -6 11 -24
-8 -39 -13 -10 -15 -16 -5 -19 6 -3 12 -13 12 -22 0 -11 7 -5 20 15 26 43 80
54 118 26 34 -25 41 -53 14 -53 -11 0 -22 7 -26 15 -7 18 -47 20 -64 3 -16
-16 -16 -80 0 -96 17 -17 53 -15 68 3 7 8 19 15 26 15 20 0 17 -27 -6 -50 -26
-26 -80 -26 -113 0 -20 16 -27 17 -33 8 -4 -7 -4 -10 1 -6 12 11 35 -11 35
-34 0 -15 5 -19 20 -15 11 3 20 1 20 -4 0 -5 -5 -9 -11 -9 -21 0 -3 -45 24
-58 27 -13 37 -32 16 -32 -6 0 -4 -7 5 -15 8 -8 22 -15 30 -15 9 0 16 -4 16
-8 0 -9 44 -32 61 -32 6 0 8 9 4 20 -4 13 -2 20 6 20 7 0 9 -3 6 -6 -3 -4 6
-16 20 -27 27 -22 79 -27 120 -13 17 6 22 3 28 -16 4 -12 22 -37 41 -54 30
-27 40 -30 110 -33 71 -2 78 -4 106 -34 21 -23 28 -40 25 -60 -2 -15 0 -27 4
-27 5 0 6 -13 3 -28 -4 -20 0 -34 12 -46 16 -17 18 -17 29 11 9 20 9 32 2 41
-6 8 -11 28 -12 45 -3 51 -16 107 -26 107 -10 0 8 41 23 51 5 3 10 15 12 26 3
11 10 31 17 44 7 13 15 31 19 39 4 8 16 16 26 18 17 2 20 -3 20 -40 0 -24 2
-103 3 -176 3 -116 1 -135 -14 -152 -15 -16 -15 -20 -3 -20 11 0 13 -8 10 -30
-4 -26 -7 -29 -21 -18 -10 8 -9 4 4 -10 11 -14 15 -26 10 -30 -13 -9 -13 -35
-1 -44 6 -4 5 -12 -3 -21 -7 -10 -8 -16 -2 -19 6 -1 13 -36 17 -75 4 -40 11
-73 15 -73 5 0 18 -9 29 -20 21 -21 29 -110 10 -110 -5 0 -10 19 -10 43 0 38
-13 67 -30 67 -3 0 -5 -102 -6 -228 -1 -272 -25 -482 -49 -419 -9 23 -21 22
-28 -3 -4 -14 -14 -20 -32 -20 -22 0 -26 4 -22 20 3 11 1 20 -5 20 -14 0 -38
27 -38 43 0 22 10 26 36 17 21 -8 24 -7 24 15 0 37 -51 58 -73 30 -6 -6 -10
-5 -14 4 -3 7 -13 21 -22 30 -9 9 -17 30 -18 47 -2 25 3 32 27 41 17 6 39 9
50 6 14 -4 20 0 20 11 0 12 7 16 26 14 22 -2 29 3 37 26 8 24 7 32 -8 42 -11
9 -15 20 -10 36 5 17 4 19 -4 9 -13 -19 -41 2 -35 27 3 11 -6 24 -26 37 -24
16 -30 27 -30 58 0 35 12 48 25 27 3 -5 11 -10 17 -10 5 0 1 8 -10 18 -16 13
-22 32 -25 75 -4 57 -8 65 -56 111 -15 13 -18 26 -14 47 4 24 1 30 -20 38 -25
10 -29 17 -43 81 l-7 35 -16 -54 c-9 -30 -21 -56 -27 -58 -6 -2 -20 26 -31 63
l-19 66 -18 -66 c-10 -37 -24 -66 -31 -66 -13 0 -59 160 -49 169 9 9 21 -18
34 -77 l14 -57 20 68 c11 38 25 67 33 67 7 0 13 6 13 13 0 18 -21 37 -40 37
-8 0 -21 10 -29 23 -13 20 -13 21 3 7 16 -13 18 -12 14 10 -2 14 -9 24 -16 22
-8 -1 -27 9 -44 23 -16 14 -36 25 -44 25 -8 0 -14 5 -14 12 0 6 -7 20 -16 30
-15 16 -15 18 0 24 9 3 14 10 11 14 -3 4 2 13 10 20 26 21 17 38 -22 43 -48 6
-77 13 -100 25 -10 5 -37 10 -60 11 l-43 2 3 -36 c2 -33 -2 -39 -33 -56 -19
-10 -42 -31 -51 -46 -15 -27 -59 -45 -59 -25 0 6 -9 8 -20 5 -13 -4 -20 0 -20
10 0 15 -31 31 -82 43 l-28 6 0 -141 c0 -119 2 -141 15 -141 8 0 15 -6 15 -14
0 -7 16 -26 35 -40 19 -15 35 -33 35 -40 0 -11 8 -12 34 -6 42 9 51 3 54 -36
3 -25 -2 -33 -24 -42 -14 -7 -35 -10 -46 -6 -17 5 -19 2 -16 -23 2 -17 9 -28
18 -28 23 0 46 -35 30 -45 -7 -4 -10 -14 -7 -21 2 -8 -4 -28 -14 -45 -16 -26
-17 -33 -5 -49 12 -17 11 -21 -10 -38 -29 -23 -31 -37 -3 -37 11 0 27 -7 35
-15 13 -12 12 -15 -6 -25 -11 -6 -20 -15 -20 -21 0 -6 5 -7 10 -4 16 10 23
-21 10 -42 -10 -16 -10 -15 -5 5 4 13 2 22 -4 22 -6 0 -11 -5 -11 -11 0 -5 -5
-7 -10 -4 -6 4 -8 11 -5 16 8 12 1 11 -29 -3 -21 -9 -29 -8 -44 5 -10 10 -22
17 -25 17 -13 0 -7 -28 7 -33 7 -3 17 -23 21 -44 4 -21 12 -41 18 -45 9 -5 8
-11 -2 -20 -9 -9 -15 -10 -18 -2 -2 6 -10 20 -18 30 -14 18 -14 18 -15 -6 0
-14 9 -33 20 -43 21 -18 41 -23 39 -9 -4 22 3 23 21 2 18 -21 19 -47 0 -35 -5
3 -15 -4 -23 -15 -12 -18 -15 -18 -35 -4 l-22 15 0 -120 c0 -68 4 -121 9 -121
5 0 16 7 25 15 20 20 25 19 19 -6 -3 -11 -16 -26 -29 -31 l-24 -11 0 -333 0
-332 32 -7 c34 -8 60 -21 89 -44 18 -15 16 -36 -3 -25 -6 4 -14 1 -18 -7 -10
-16 -71 -21 -87 -7 -10 8 -13 -22 -13 -145 0 -148 1 -155 19 -150 28 7 42 -26
33 -77 -4 -24 -14 -46 -21 -48 -10 -3 -12 0 -8 11 3 8 -1 23 -8 34 -12 15 -14
-161 -15 -1249 l0 -1268 719 0 718 0 -5 25 c-2 15 0 25 7 25 6 0 11 -11 11
-25 l0 -24 1835 -1 1835 0 0 4387 0 4388 -55 -3 c-52 -4 -74 -17 -39 -24 13
-2 11 -8 -11 -32 -19 -20 -29 -25 -34 -17 -4 7 -19 13 -32 13 -13 1 -29 5 -35
10 -18 13 -31 -12 -39 -70 -12 -87 -13 -113 -21 -400 -4 -150 -11 -267 -15
-260 -5 7 -6 189 -4 403 3 215 7 588 10 830 11 1002 14 1131 24 1157 7 18 20
28 43 33 18 4 62 13 98 21 36 8 75 17 88 20 l22 4 0 311 0 310 -62 -3 -63 -3
-3 -56 -3 -56 -187 -61 c-103 -33 -209 -66 -237 -73 -27 -6 -54 -16 -60 -20
-5 -5 -18 -9 -30 -9 -12 0 -26 -5 -33 -12 -13 -13 -17 2 -4 18 4 5 -1 1 -10
-9 -9 -10 -44 -27 -78 -39 -52 -17 -65 -18 -91 -8 -40 17 -88 15 -107 -3 -20
-21 -7 -40 19 -26 11 5 30 9 42 7 24 -4 -176 -70 -778 -258 -550 -171 -1016
-319 -1026 -326 -5 -3 -9 -25 -9 -50 l0 -44 150 0 150 0 0 63 c0 86 11 99 80
95 46 -2 57 -7 65 -25 6 -15 18 -23 35 -23 39 0 59 -20 62 -65 3 -38 5 -40 40
-43 43 -4 52 -21 46 -88 -3 -37 -5 -39 -43 -44 -40 -5 -40 -5 -45 -55 l-5 -50
-40 -3 c-31 -2 -43 -8 -50 -25 -8 -18 -20 -23 -63 -25 -73 -4 -82 6 -82 89 l0
70 -147 -3 -148 -3 -3 -65 c-2 -35 -8 -70 -14 -77 -11 -14 -96 -18 -114 -5 -6
4 -13 15 -17 25 -4 12 -17 17 -41 17 -41 0 -56 20 -56 74 0 35 -1 36 -40 36
l-40 0 0 60 c0 33 -2 60 -4 60 -2 0 -34 -9 -71 -21 -37 -11 -69 -18 -72 -15
-3 3 18 32 46 64 34 39 66 65 94 76 35 13 51 30 95 95 28 44 52 84 52 89 0 5
20 36 45 68 25 31 45 63 45 71 0 7 5 13 11 13 7 0 9 10 7 24 -4 18 -1 22 13
19 12 -4 24 10 45 48 24 44 34 54 58 56 16 1 37 11 48 23 24 26 32 26 17 -1
-18 -35 3 -40 59 -13 50 24 53 27 38 43 -9 10 -16 21 -16 24 0 10 129 67 151
67 11 0 19 5 19 12 0 6 9 21 20 33 17 19 29 21 71 17 39 -4 48 -2 44 9 -8 24
16 43 88 69 27 10 32 5 28 -28 -3 -23 68 23 93 61 34 50 64 78 71 66 4 -5 22
7 41 28 l35 38 -105 3 c-97 2 -112 0 -203 -31 -123 -43 -253 -80 -260 -74 -2
3 44 21 104 40 59 20 124 42 143 51 l35 15 -35 -1 c-19 -1 -102 -23 -185 -50z
m-78 -64 c-3 -3 -12 -4 -19 -1 -8 3 -5 6 6 6 11 1 17 -2 13 -5z m-1733 -451
c-34 -14 -54 -16 -54 -5 0 15 8 18 47 18 l37 0 -30 -13z m1156 -43 c-20 -13
-43 -13 -35 0 3 6 16 10 28 10 18 0 19 -2 7 -10z m26 -131 c-3 -17 -20 -49
-37 -70 -17 -21 -28 -39 -24 -39 3 0 1 -9 -5 -20 -12 -22 -34 -28 -27 -7 2 6
-3 18 -12 25 -9 7 -11 11 -5 10 7 -2 12 0 13 5 3 21 0 27 -13 27 -22 0 -27 28
-6 35 10 3 22 15 25 27 6 16 13 19 35 14 18 -3 33 0 40 9 19 23 23 18 16 -16z
m18 -93 c-3 -8 -12 -17 -20 -20 -12 -4 -12 -2 -4 14 12 23 32 27 24 6z m-194
-117 c0 -5 7 -9 15 -9 8 0 15 -4 15 -8 0 -16 -67 -79 -125 -119 -56 -37 -86
-49 -267 -101 -69 -20 -86 -18 -47 7 15 9 18 15 10 20 -14 9 75 58 96 53 8 -2
30 11 51 27 20 17 47 31 59 31 25 0 73 20 73 30 0 4 14 13 31 20 18 8 28 18
25 26 -10 26 4 41 34 36 17 -2 30 -8 30 -13z m-524 -236 c-10 -10 -19 5 -10
18 6 11 8 11 12 0 2 -7 1 -15 -2 -18z m1246 -96 c-2 -15 1 -27 6 -27 6 0 3
-19 -6 -42 -12 -31 -13 -43 -4 -46 7 -2 12 -13 12 -25 0 -19 10 -25 63 -39 34
-9 74 -19 90 -23 15 -3 27 -12 27 -20 0 -8 7 -15 15 -15 8 0 15 5 15 10 0 6
15 10 33 10 27 0 35 -6 52 -37 29 -52 45 -54 45 -4 0 34 3 41 20 41 17 0 20
-7 20 -39 0 -22 5 -43 10 -46 6 -3 10 -17 10 -30 0 -24 31 -51 44 -38 3 3 6
30 6 59 0 47 -2 53 -22 56 -13 2 -24 11 -26 21 -3 15 5 17 67 17 64 0 71 -2
71 -20 0 -15 -7 -20 -25 -20 -24 0 -25 -2 -25 -70 0 -38 -4 -70 -10 -70 -5 0
-7 -7 -4 -15 4 -10 0 -15 -15 -15 -14 0 -19 -5 -15 -15 4 -8 18 -15 33 -15 17
0 22 -3 13 -8 -8 -6 -1 -13 23 -22 19 -8 35 -20 35 -27 0 -9 15 -13 50 -13 57
0 133 41 123 66 -4 10 3 14 27 14 21 0 40 8 54 23 12 13 28 21 35 19 7 -2 16
0 20 5 3 4 19 16 34 26 15 10 26 21 23 25 -2 4 11 18 30 31 18 13 31 27 28 32
-3 5 0 9 6 9 7 0 26 6 43 14 37 16 82 27 115 28 12 0 22 4 22 9 0 13 44 11 74
-2 16 -8 32 -28 42 -55 16 -41 19 -44 55 -44 72 0 109 -34 109 -98 0 -52 -31
-63 -105 -37 -40 14 -40 14 -75 -19 -34 -33 -139 -105 -255 -174 -35 -21 -55
-40 -55 -52 0 -10 -6 -20 -12 -22 -21 -7 62 -79 86 -75 12 2 61 23 111 47 81
39 97 43 165 44 41 0 94 -5 118 -12 37 -11 42 -16 42 -42 0 -24 -12 -39 -71
-87 -106 -86 -156 -120 -226 -150 -42 -18 -62 -32 -58 -41 4 -12 -16 -42 -29
-42 -2 0 -6 10 -8 23 -2 18 -9 22 -40 21 l-37 -1 -7 99 c-3 54 -10 98 -15 98
-5 0 -10 -9 -10 -20 -2 -24 -3 -28 -16 -59 -16 -40 -24 0 -9 45 25 75 28 94
11 94 -8 0 -15 -4 -15 -10 0 -5 -7 -10 -15 -10 -8 0 -15 7 -15 15 0 8 -9 23
-19 32 -11 9 -17 22 -14 29 4 10 -4 14 -24 14 -21 0 -33 7 -41 23 -10 21 -11
21 -11 1 -1 -33 -35 -58 -60 -45 -11 6 -28 11 -38 11 -19 1 -63 33 -63 46 0
21 -36 44 -70 44 -21 0 -43 6 -49 14 -10 12 -6 13 29 9 45 -6 47 -3 23 35 -22
36 -50 58 -98 81 -22 10 -77 46 -123 80 l-82 63 -19 -24 c-22 -26 -25 -22 -36
45 -6 36 -18 47 -30 27 -3 -5 -19 -10 -36 -10 -22 0 -29 -5 -29 -20 0 -16 7
-20 35 -20 36 0 41 -5 26 -28 -5 -9 -24 -12 -52 -10 l-44 3 -7 75 c-5 41 -9
82 -10 90 -1 15 -16 30 -31 30 -5 0 -5 -5 -1 -11 11 -19 4 -173 -9 -181 -21
-13 -27 3 -27 78 0 58 -3 76 -15 81 -23 8 -29 -3 -17 -36 23 -65 -20 -119
-100 -128 l-45 -5 -8 93 c-6 79 -4 95 9 105 9 6 16 14 16 18 0 11 -38 6 -42
-6 -2 -6 -18 -11 -36 -11 -31 0 -39 -7 -25 -21 10 -10 52 -160 47 -168 -8 -12
-33 3 -39 23 -10 31 -72 26 -87 -6 -12 -26 -23 -31 -33 -16 -5 10 27 140 40
162 4 6 17 14 29 19 17 7 15 9 -17 9 -21 1 -51 -6 -67 -14 -26 -14 -28 -18
-19 -39 9 -19 8 -31 -4 -54 -13 -27 -13 -33 0 -52 12 -17 13 -24 3 -33 -9 -9
-18 -4 -39 21 -34 39 -49 41 -53 5 -2 -17 -10 -29 -20 -31 -15 -3 -18 4 -18
41 0 25 -3 52 -6 61 -9 23 -27 19 -21 -4 10 -37 -36 -99 -73 -100 -14 0 -80
-71 -80 -86 0 -3 -19 -34 -43 -68 -24 -33 -54 -87 -66 -118 -13 -31 -31 -64
-42 -74 -19 -17 -19 -16 -8 17 7 19 15 39 20 44 4 6 15 36 24 68 9 32 23 61
31 64 8 3 14 11 14 18 0 6 10 23 23 37 67 75 72 91 39 132 -33 42 -29 91 9
127 35 32 66 36 109 14 25 -13 29 -13 34 0 3 8 12 15 20 15 8 0 19 7 23 15 10
18 210 44 266 34 21 -3 40 -2 42 2 5 8 95 2 104 -6 2 -3 10 0 16 5 9 7 21 7
40 0 37 -14 45 -6 45 43 0 31 -3 38 -10 27 -7 -11 -10 3 -10 47 0 40 4 63 13
66 22 9 32 1 29 -26z m-1707 -37 c-3 -5 -16 -10 -28 -10 -18 0 -19 2 -7 10 20
13 43 13 35 0z m-223 -72 c-6 -6 -15 -8 -19 -4 -4 4 -1 11 7 16 19 12 27 3 12
-12z m-122 -28 c0 -5 -5 -10 -11 -10 -5 0 -7 5 -4 10 3 6 8 10 11 10 2 0 4 -4
4 -10z m1570 -409 c0 -3 -5 -13 -10 -21 -8 -13 -11 -13 -26 2 -17 16 -19 15
-42 -18 -18 -26 -23 -44 -18 -66 3 -18 2 -27 -4 -23 -6 3 -10 0 -10 -7 0 -7
-24 -37 -52 -67 -58 -60 -76 -60 -91 -1 -15 57 48 175 80 149 10 -9 18 -6 33
12 10 13 19 29 20 36 0 7 19 21 43 32 l42 20 18 -20 c9 -12 17 -24 17 -28z
m-540 -349 c0 -10 -179 -106 -186 -100 -8 9 32 37 100 73 69 36 86 41 86 27z
m2165 -142 c-3 -5 -11 -10 -16 -10 -6 0 -7 5 -4 10 3 6 11 10 16 10 6 0 7 -4
4 -10z m-2437 -38 c-13 -16 -25 -25 -27 -20 -4 11 28 48 41 48 5 0 -1 -13 -14
-28z m2412 -63 c0 -11 -4 -17 -10 -14 -5 3 -10 15 -10 26 0 11 5 17 10 14 6
-3 10 -15 10 -26z m1125 21 c3 -5 1 -10 -4 -10 -6 0 -11 5 -11 10 0 6 2 10 4
10 3 0 8 -4 11 -10z m-1055 -240 c-14 -10 -27 -17 -29 -15 -8 8 22 35 38 35
12 0 10 -5 -9 -20z m-1320 -27 c12 -3 11 -6 -4 -15 -15 -8 -21 -8 -24 0 -2 7
-12 12 -23 12 -10 0 -19 5 -19 10 0 9 29 7 70 -7z m1411 3 l34 -14 -27 -13
c-15 -6 -25 -16 -22 -20 3 -5 -8 -12 -23 -15 -42 -11 -58 -30 -39 -49 8 -8 19
-15 25 -15 15 0 14 -9 -3 -26 -17 -17 -48 -18 -63 -3 -14 14 -48 -14 -38 -31
3 -5 -3 -10 -14 -10 -19 0 -20 2 -9 23 7 12 17 25 22 28 5 4 6 27 2 52 -6 39
-4 49 13 66 12 12 33 21 49 21 15 0 34 5 42 10 18 12 12 12 51 -4z m-1531 -40
c0 -3 -4 -8 -10 -11 -5 -3 -10 -1 -10 4 0 6 5 11 10 11 6 0 10 -2 10 -4z
m-157 -96 c7 0 23 -21 36 -47 14 -27 26 -50 28 -52 1 -2 9 2 18 9 9 7 18 10
22 6 4 -3 -3 -13 -15 -22 -26 -18 -30 -47 -6 -37 14 5 14 3 3 -16 -16 -25 -28
-26 -55 -6 -10 8 -25 15 -31 15 -22 0 -14 -30 10 -40 26 -11 27 -10 -46 -13
-32 -1 -61 -7 -65 -12 -4 -6 -17 -16 -29 -23 -19 -10 -23 -10 -23 3 0 18 -20
20 -20 3 -1 -7 -7 5 -15 27 -16 44 -11 81 12 94 9 4 16 20 16 34 0 20 6 27 26
32 22 5 79 12 114 14 5 1 5 6 2 11 -4 6 -11 8 -16 5 -13 -9 -11 4 4 19 6 8 14
10 15 5 2 -5 9 -9 15 -9z m1467 -70 c-8 -5 -19 -10 -25 -10 -5 0 -3 5 5 10 8
5 20 10 25 10 6 0 3 -5 -5 -10z m117 4 c-3 -3 -12 -4 -19 -1 -8 3 -5 6 6 6 11
1 17 -2 13 -5z m-1361 -118 c3 -8 11 -13 19 -10 14 6 28 -33 15 -41 -5 -3 -35
-1 -67 4 -39 6 -62 6 -71 -2 -18 -14 -33 3 -26 30 5 19 12 21 50 17 23 -2 46
1 49 6 9 15 25 12 31 -4z m-1056 -103 c0 -5 14 -16 30 -25 25 -14 30 -23 30
-55 0 -21 9 -62 21 -92 11 -30 18 -59 15 -66 -2 -7 6 -17 20 -24 16 -7 24 -19
24 -36 0 -14 -4 -25 -8 -25 -14 0 -7 -57 8 -76 12 -14 12 -18 -3 -29 -9 -7
-17 -17 -17 -22 0 -6 -10 -14 -22 -17 l-23 -6 24 -21 c21 -17 22 -22 10 -30
-20 -12 -39 -11 -37 3 2 6 -5 13 -14 16 -15 3 -16 -4 -11 -52 4 -39 2 -56 -6
-56 -6 0 -11 -9 -11 -19 0 -11 -4 -22 -9 -25 -11 -7 -36 -95 -33 -118 1 -9 -5
-22 -13 -28 -8 -7 -15 -28 -15 -46 0 -22 -5 -34 -14 -34 -16 0 -30 -41 -29
-87 0 -31 -27 -58 -35 -34 -2 5 -10 7 -17 5 -20 -8 -48 15 -91 70 -27 36 -34
53 -30 72 6 22 4 24 -32 24 -21 0 -42 -4 -48 -10 -6 -6 -27 2 -59 22 -70 44
-133 66 -209 74 -36 4 -66 11 -66 15 0 5 19 21 43 35 186 118 323 256 413 419
9 17 54 83 100 147 46 65 84 122 84 128 0 5 7 10 15 10 8 0 15 -3 15 -7z
m3420 -109 c0 -8 -5 -12 -10 -9 -6 4 -8 11 -5 16 9 14 15 11 15 -7z m-1598
-56 c-7 -7 -12 -8 -12 -2 0 14 12 26 19 19 2 -3 -1 -11 -7 -17z m1598 -217 l0
-228 -50 8 c-27 4 -55 11 -61 15 -18 11 -3 102 32 199 25 70 29 88 18 101 -10
12 -8 20 9 43 16 22 18 31 9 40 -9 10 -7 17 12 32 13 10 25 19 27 19 2 0 4
-103 4 -229z m-1610 185 c0 -18 -46 -73 -54 -65 -5 5 42 79 51 79 1 0 3 -6 3
-14z m-1590 -128 c7 -18 9 -19 9 -5 1 20 5 21 31 5 16 -10 22 -10 32 4 10 13
21 15 53 8 22 -4 36 -8 31 -9 -5 0 -1 -10 8 -20 13 -14 15 -24 8 -38 -5 -10
-13 -42 -17 -70 -4 -29 -11 -53 -16 -53 -5 0 -9 -7 -9 -15 0 -18 -1 -18 -33
-6 -17 7 -30 6 -42 -3 -15 -11 -15 -13 -1 -25 9 -8 16 -21 16 -30 -1 -13 -3
-13 -16 4 -8 11 -21 19 -29 17 -7 -1 -18 11 -23 28 -6 16 -16 30 -23 30 -7 0
-9 10 -6 26 3 17 -2 33 -17 49 -17 18 -21 33 -18 62 7 62 43 86 62 41z m1299
-140 c-6 -13 -25 -40 -42 -61 -24 -31 -30 -50 -34 -105 -2 -37 -6 -78 -9 -91
l-5 -24 -19 30 c-10 17 -30 33 -44 37 -33 8 -33 21 2 41 26 16 47 44 80 110
23 45 76 109 80 97 2 -6 -2 -21 -9 -34z m-341 -140 c7 -7 12 -16 12 -20 0 -12
-58 -10 -65 2 -16 26 30 41 53 18z m128 -3 c0 -6 4 -18 8 -28 15 -32 -41 -67
-59 -37 -12 19 15 81 33 78 10 -2 17 -8 18 -13z m2135 -79 c14 -16 10 -79 -7
-101 -11 -14 -18 -16 -21 -7 -3 6 -21 12 -41 12 -113 1 -123 91 -11 106 40 5
49 10 55 33 l8 26 4 -30 c2 -16 8 -34 13 -39z m-2201 -100 c0 -38 -9 -49 -30
-36 -11 7 -11 13 0 39 17 41 30 39 30 -3z m-100 -144 c0 -11 -8 -27 -19 -36
-17 -16 -19 -16 -24 6 -7 24 8 48 29 48 8 0 14 -8 14 -18z m-580 -197 c22 -14
40 -29 40 -34 0 -5 2 -16 5 -23 4 -9 -10 -20 -40 -32 -25 -11 -45 -23 -45 -27
0 -5 14 -24 31 -44 47 -53 23 -42 -28 13 l-44 47 -25 -28 c-13 -15 -24 -39
-24 -51 0 -25 -19 -39 -38 -27 -9 5 -7 13 7 27 10 11 29 49 41 85 18 52 62
119 77 119 2 0 21 -11 43 -25z m380 -30 c-7 -9 -15 -13 -18 -10 -3 2 1 11 8
20 7 9 15 13 18 10 3 -2 -1 -11 -8 -20z m395 -15 c-3 -5 -24 -10 -46 -10 -24
0 -38 4 -34 10 3 6 24 10 46 10 24 0 38 -4 34 -10z m472 -21 c74 2 137 -13
164 -40 15 -15 18 -29 15 -61 -3 -24 -5 -46 -5 -50 -1 -5 -8 -8 -16 -8 -21 0
-19 -20 3 -21 34 -3 -44 -17 -98 -18 -31 0 -82 -8 -113 -16 -32 -8 -86 -15
-120 -14 -57 1 -59 2 -27 10 34 9 75 16 114 18 20 1 20 1 0 15 -12 9 -23 11
-28 5 -6 -5 -38 -9 -72 -9 l-61 0 -7 38 c-8 49 -8 126 0 147 6 15 18 16 98 10
50 -4 119 -7 153 -6z m-339 -41 c22 -7 32 -15 28 -24 -3 -8 3 -20 14 -26 15
-10 20 -24 20 -60 0 -26 -5 -50 -11 -53 -6 -4 -8 -14 -5 -22 4 -9 0 -14 -12
-12 -36 3 -43 -1 -37 -22 4 -11 4 -42 0 -70 -6 -39 -11 -49 -26 -49 -12 0 -19
-7 -19 -20 0 -12 -5 -17 -13 -14 -8 3 -13 14 -13 26 1 13 -6 22 -17 24 -40 6
-46 13 -45 51 0 21 5 44 11 51 7 9 3 12 -17 12 -14 0 -26 4 -26 10 0 5 -15 12
-33 15 -31 6 -87 44 -87 59 0 3 6 6 13 6 15 0 77 66 77 83 1 7 20 22 43 34 44
23 85 23 155 1z m585 -17 c6 -23 57 -35 57 -13 0 11 8 13 33 8 17 -4 40 -7 50
-7 41 -1 0 -39 -42 -39 -12 0 -30 -4 -41 -10 -11 -5 -29 -14 -40 -20 -35 -17
-40 -11 -40 45 0 53 13 74 23 36z m173 -164 c2 -7 1 -31 -4 -52 -6 -32 -13
-41 -32 -43 -14 -2 -29 -9 -35 -15 -19 -23 -61 -37 -74 -24 -8 8 -15 6 -26 -9
-13 -17 -14 -17 -15 -1 0 21 -16 22 -24 1 -4 -11 -13 -14 -31 -10 -14 4 -25 2
-25 -2 0 -12 -160 -31 -166 -20 -3 4 -8 39 -11 78 -5 58 -3 71 10 76 9 3 103
12 209 19 106 6 199 13 206 14 7 0 15 -5 18 -12z m-589 -30 c6 -7 6 -37 -1
-65 -13 -57 42 -89 66 -38 13 30 4 56 -22 63 -19 5 -19 6 3 29 24 25 65 32 72
12 3 -7 -1 -49 -8 -93 l-12 -80 -30 2 c-17 1 -66 3 -110 5 -63 2 -80 6 -81 18
0 8 -6 28 -13 44 -7 17 -11 46 -9 65 3 34 5 36 48 42 37 5 90 3 97 -4z m-698
-140 c83 -56 141 -131 198 -253 19 -42 33 -80 30 -87 -2 -6 -25 20 -52 59 -58
81 -130 175 -197 257 -66 80 -65 82 21 24z m850 -96 c23 -23 18 -31 -20 -31
-25 0 -26 2 -16 25 14 30 12 30 36 6z m-119 -31 c-8 -5 -35 -10 -60 -10 -33 0
-41 3 -30 10 8 5 35 10 60 10 33 0 41 -3 30 -10z m-357 -17 c-7 -2 -21 -2 -30
0 -10 3 -4 5 12 5 17 0 24 -2 18 -5z m60 0 c-7 -2 -19 -2 -25 0 -7 3 -2 5 12
5 14 0 19 -2 13 -5z m2017 -108 c0 -43 -4 -56 -19 -64 -26 -15 -31 -5 -31 61
0 55 1 58 25 58 24 0 25 -3 25 -55z m-11 -104 c15 -10 10 -76 -11 -141 -11
-34 -12 -34 -19 -10 -4 14 -7 55 -8 93 -1 68 6 78 38 58z m-2253 -31 c7 -14
15 -45 19 -70 7 -41 6 -43 -9 -31 -9 8 -15 19 -14 25 1 6 -2 25 -6 42 -6 25
-14 33 -39 38 -25 5 -29 9 -17 16 24 16 54 7 66 -20z m217 -10 c3 -10 -1 -24
-8 -30 -7 -6 -11 -20 -8 -31 4 -15 2 -18 -12 -13 -11 5 -15 14 -11 28 3 11 6
31 6 44 0 27 26 29 33 2z m662 10 c-3 -5 -13 -10 -20 -10 -10 0 -14 -11 -12
-37 1 -29 -2 -38 -15 -41 -14 -3 -18 3 -18 25 0 56 10 73 42 73 17 0 27 -4 23
-10z m-774 -33 c-1 -12 -15 -9 -19 4 -3 6 1 10 8 8 6 -3 11 -8 11 -12z m1159
-53 c0 -2 -9 -4 -21 -4 -11 0 -18 4 -14 10 5 8 35 3 35 -6z m-1070 -104 c0
-13 -1 -13 -10 0 -5 8 -10 22 -10 30 0 13 1 13 10 0 5 -8 10 -22 10 -30z m679
-257 l1 -173 80 0 c64 0 80 -3 80 -15 0 -10 -10 -15 -30 -15 l-30 0 0 -81 c0
-71 -2 -80 -17 -77 -15 3 -18 16 -21 81 l-3 77 -31 0 -31 0 5 -105 c4 -93 3
-105 -11 -103 -9 2 -17 13 -19 26 -2 12 -7 22 -12 22 -5 0 -30 30 -55 67 l-45
68 0 -68 c0 -60 -2 -68 -17 -65 -15 3 -18 17 -21 96 -3 86 -1 92 17 92 13 0
35 -21 62 -60 23 -33 42 -60 43 -60 1 0 -1 27 -2 60 -3 50 -1 60 12 60 13 0
16 16 17 100 1 55 3 105 4 110 1 6 4 49 5 98 4 152 18 52 19 -135z m-2859 117
c0 -5 -4 -10 -10 -10 -5 0 -10 5 -10 10 0 6 5 10 10 10 6 0 10 -4 10 -10z
m-51 -41 c-13 -26 -23 -18 -14 10 3 12 11 19 16 16 5 -4 5 -14 -2 -26z m131
-9 c0 -5 -5 -10 -11 -10 -5 0 -7 5 -4 10 3 6 8 10 11 10 2 0 4 -4 4 -10z
m4060 -204 c0 -99 -3 -184 -7 -189 -11 -18 -23 18 -23 71 0 39 -4 52 -15 52
-11 0 -15 -18 -17 -77 -3 -65 -6 -78 -20 -81 -16 -3 -18 6 -18 77 l0 81 -30 0
c-20 0 -30 5 -30 15 0 12 14 15 64 15 l64 0 -1 98 c0 98 6 126 25 120 6 -2 9
-71 8 -182z m-3610 114 c0 -5 -2 -10 -4 -10 -3 0 -8 5 -11 10 -3 6 -1 10 4 10
6 0 11 -4 11 -10z m-772 -82 c-6 -18 -28 -21 -28 -4 0 9 7 16 16 16 9 0 14 -5
12 -12z m286 -88 c16 -15 21 -33 21 -71 0 -43 -4 -54 -28 -75 -45 -38 -113
-27 -136 23 -21 45 -14 92 19 125 27 26 36 30 67 25 20 -4 46 -16 57 -27z
m699 18 c23 -12 46 -37 47 -50 0 -15 -38 -8 -44 7 -7 18 -57 20 -74 3 -20 -20
-15 -83 8 -103 17 -15 24 -16 45 -7 14 6 25 16 25 22 0 5 9 10 20 10 27 0 25
-16 -5 -45 -34 -35 -78 -33 -116 4 -74 75 4 207 94 159z m607 -3 c17 -9 30
-17 30 -19 0 -3 3 -11 6 -20 4 -11 0 -16 -14 -16 -11 0 -22 7 -26 15 -7 18
-57 20 -74 3 -7 -7 -12 -28 -12 -47 0 -55 46 -91 78 -59 19 19 14 38 -9 38
-12 0 -19 5 -16 13 2 6 19 12 38 12 30 0 34 -4 37 -27 4 -38 -36 -78 -78 -78
-44 0 -90 47 -90 92 0 43 19 80 50 95 33 17 45 16 80 -2z m2188 -12 c30 -30
16 -44 -23 -23 -12 7 -31 10 -41 8 -34 -6 -20 -30 25 -44 24 -7 48 -19 52 -26
26 -40 -11 -88 -66 -88 -34 0 -75 27 -75 50 0 15 29 12 46 -5 17 -17 33 -19
53 -6 22 14 6 38 -31 46 -45 10 -58 22 -58 56 0 57 72 78 118 32z m406 6 c31
-24 33 -39 6 -39 -11 0 -20 4 -20 9 0 13 -35 20 -53 9 -24 -13 -10 -35 28 -42
93 -18 83 -116 -11 -116 -24 0 -39 8 -54 28 -19 23 -20 27 -6 30 9 2 23 -4 32
-13 22 -21 59 -16 59 9 0 13 -14 23 -45 35 -41 15 -45 19 -45 51 0 27 6 37 25
47 35 18 53 16 84 -8z m333 0 c16 -14 17 -39 1 -39 -7 0 -21 7 -31 14 -23 17
-59 9 -55 -12 2 -9 21 -21 42 -27 22 -6 46 -21 54 -33 13 -19 12 -25 -2 -47
-28 -43 -103 -45 -130 -3 -20 33 5 36 47 6 13 -10 21 -10 35 -2 28 18 20 38
-20 47 -47 11 -72 39 -64 70 10 43 84 58 123 26z m-4106 -49 c23 -33 42 -60
43 -60 1 0 -1 27 -2 60 -4 55 -2 60 17 60 20 0 21 -5 21 -95 0 -117 -10 -121
-72 -33 l-43 61 -3 -62 c-3 -52 -6 -62 -20 -59 -14 3 -17 18 -20 96 -3 86 -1
92 17 92 13 0 35 -21 62 -60z m197 -2 l42 -62 0 62 c0 56 2 62 20 62 20 0 21
-5 18 -92 -4 -120 -17 -125 -81 -31 l-47 67 0 -67 c0 -53 -3 -67 -15 -67 -12
0 -15 17 -15 95 0 84 2 95 18 95 10 0 35 -27 60 -62z m232 47 c0 -11 -12 -15
-45 -15 -38 0 -45 -3 -45 -20 0 -17 7 -20 40 -20 33 0 40 -3 40 -20 0 -17 -7
-20 -40 -20 -33 0 -40 -3 -40 -19 0 -16 8 -20 43 -23 29 -2 42 -8 42 -18 0
-11 -15 -16 -62 -18 l-63 -3 0 96 0 95 65 0 c51 0 65 -3 65 -15z m350 0 c0
-10 -10 -15 -30 -15 l-30 0 0 -80 c0 -73 -2 -80 -20 -80 -18 0 -20 7 -20 80 0
79 0 80 -25 80 -16 0 -25 6 -25 15 0 12 15 15 75 15 60 0 75 -3 75 -15z m58
-77 c-3 -79 -6 -93 -20 -96 -16 -3 -18 6 -18 92 0 90 1 96 20 96 20 0 21 -5
18 -92z m104 31 l43 -61 3 61 c2 45 7 61 17 61 12 0 15 -19 15 -95 0 -116 -9
-120 -71 -34 l-44 61 -3 -61 c-3 -52 -6 -62 -20 -59 -14 3 -17 18 -20 96 -3
86 -2 92 17 92 13 0 35 -21 63 -61z m398 26 c0 -35 0 -35 45 -35 45 0 45 0 45
35 0 29 4 35 20 35 20 0 21 -5 18 -92 -3 -79 -6 -93 -20 -96 -15 -3 -18 4 -18
40 l0 43 -45 -3 -45 -4 0 -39 c0 -28 -4 -39 -15 -39 -12 0 -15 17 -15 95 0 78
3 95 15 95 10 0 15 -11 15 -35z m280 20 c0 -11 -11 -15 -40 -15 -35 0 -40 -3
-40 -22 0 -20 5 -23 37 -23 27 0 38 -4 38 -15 0 -11 -9 -14 -37 -12 -35 3 -38
1 -38 -22 0 -24 4 -26 40 -26 33 0 40 -3 40 -20 0 -18 -7 -20 -60 -20 l-60 0
0 95 0 95 60 0 c47 0 60 -3 60 -15z m155 -67 c16 -46 30 -89 33 -95 8 -24 -29
-13 -40 12 -8 19 -19 25 -43 25 -24 0 -35 -6 -43 -25 -11 -25 -48 -36 -40 -12
3 6 18 49 34 95 24 67 32 82 50 82 17 0 26 -14 49 -82z m95 7 l0 -75 40 0 c33
0 40 -3 40 -20 0 -18 -7 -20 -60 -20 l-60 0 0 95 c0 88 1 95 20 95 18 0 20 -7
20 -75z m220 60 c0 -10 -10 -15 -30 -15 l-30 0 0 -80 c0 -64 -3 -80 -15 -80
-12 0 -15 16 -15 80 l0 80 -30 0 c-20 0 -30 5 -30 15 0 12 15 15 75 15 60 0
75 -3 75 -15z m60 -20 c0 -34 1 -35 40 -35 39 0 40 1 40 35 0 28 4 35 20 35
19 0 20 -7 20 -96 0 -86 -2 -95 -17 -92 -13 2 -20 16 -23 43 -5 39 -6 40 -43
40 -37 0 -37 0 -37 -42 0 -36 -3 -43 -20 -43 -19 0 -20 7 -20 95 0 88 1 95 20
95 16 0 20 -7 20 -35z m340 20 c0 -11 -12 -15 -46 -15 -41 0 -45 -2 -42 -22 2
-19 9 -23 41 -23 23 0 37 -5 37 -12 0 -8 -15 -13 -40 -13 -36 0 -40 -3 -40
-24 0 -22 5 -25 42 -28 31 -2 44 -8 46 -20 3 -16 -5 -18 -57 -18 l-61 0 0 95
0 95 60 0 c47 0 60 -3 60 -15z m420 -20 c0 -34 1 -35 40 -35 39 0 40 1 40 35
0 28 4 35 20 35 19 0 20 -7 20 -95 0 -88 -1 -95 -20 -95 -17 0 -20 7 -20 43
l0 43 -39 -4 c-38 -4 -40 -6 -43 -40 -2 -26 -8 -38 -20 -40 -16 -3 -18 6 -18
92 0 89 1 96 20 96 16 0 20 -7 20 -35z m192 -36 c2 -55 7 -74 21 -83 12 -8 22
-8 35 0 13 9 18 28 20 83 3 63 5 71 22 71 18 0 20 -7 20 -70 0 -62 -3 -74 -25
-95 -15 -16 -36 -25 -55 -25 -19 0 -40 9 -55 25 -22 21 -25 33 -25 95 0 63 2
70 20 70 17 0 19 -8 22 -71z m348 -24 c0 -78 -3 -95 -15 -95 -12 0 -15 17 -15
95 0 78 3 95 15 95 12 0 15 -17 15 -95z m155 13 c16 -46 30 -89 33 -95 8 -24
-29 -13 -40 12 -8 19 -19 25 -43 25 -24 0 -35 -6 -43 -25 -6 -14 -18 -25 -27
-25 -20 0 -20 -3 16 100 27 77 35 90 54 90 18 0 26 -13 50 -82z m-625 -156 c0
-5 -14 -21 -30 -37 -24 -23 -33 -26 -43 -16 -10 10 -6 17 16 37 28 24 57 32
57 16z m-2630 -44 c0 -16 -3 -19 -11 -11 -6 6 -8 16 -5 22 11 17 16 13 16 -11z
m3610 -20 c0 -16 -3 -19 -11 -11 -6 6 -8 16 -5 22 11 17 16 13 16 -11z m-1215
-28 c-3 -5 -10 -10 -16 -10 -5 0 -9 5 -9 10 0 6 7 10 16 10 8 0 12 -4 9 -10z
m-3015 -10 c0 -5 -2 -10 -4 -10 -3 0 -8 5 -11 10 -3 6 -1 10 4 10 6 0 11 -4
11 -10z m2960 -30 c5 0 10 6 13 13 4 9 7 9 18 0 15 -15 12 -20 -16 -25 -11 -1
-23 -7 -27 -13 -4 -5 -7 8 -6 30 0 23 3 30 5 18 2 -13 8 -23 13 -23z m-2945
-61 c4 -6 5 -12 2 -15 -7 -7 -37 7 -37 17 0 13 27 11 35 -2z m4202 -81 c-3 -8
-6 -5 -6 6 -1 11 2 17 5 13 3 -3 4 -12 1 -19z m-1662 -58 c4 -6 -5 -10 -19
-10 -14 0 -26 5 -26 10 0 6 9 10 19 10 11 0 23 -4 26 -10z m774 -115 c4 -6 6
-49 4 -96 l-5 -86 -44 -1 c-47 -2 -64 14 -64 62 0 14 -4 26 -10 26 -5 0 -10
-20 -10 -45 0 -59 -18 -58 -22 1 -6 87 -68 84 -68 -2 0 -24 -4 -44 -10 -44 -6
0 -10 27 -10 61 0 48 -3 60 -14 56 -7 -3 -20 0 -27 6 -12 10 -12 9 -1 -2 6 -8
12 -38 12 -67 l0 -52 -47 2 c-37 1 -48 5 -51 19 -5 26 16 47 49 47 18 0 29 5
29 14 0 19 -28 28 -50 16 -24 -13 -33 -13 -25 0 3 5 8 20 10 31 5 25 1 21 45
48 32 20 46 22 167 19 73 -2 137 -8 142 -13z m-859 -45 c0 -28 2 -30 21 -20
25 14 68 -10 70 -38 4 -64 -11 -83 -67 -80 l-44 1 0 84 c0 49 4 83 10 83 6 0
10 -14 10 -30z m1040 -20 c23 15 39 12 57 -10 17 -19 50 -29 39 -11 -8 13 49
34 72 26 11 -3 25 -19 30 -35 10 -27 9 -29 -18 -35 -38 -8 -59 -32 -36 -41 9
-3 23 -1 31 6 9 7 19 10 22 6 11 -11 -18 -26 -49 -26 -16 0 -33 8 -42 21 -15
22 -36 18 -36 -7 0 -8 -4 -14 -10 -14 -5 0 -10 18 -10 39 0 52 -8 71 -30 71
-24 0 -33 -15 -41 -70 -5 -33 -6 -22 -6 45 0 51 2 76 6 58 5 -26 9 -30 21 -23z
m370 -35 c0 -50 -4 -85 -10 -85 -6 0 -10 35 -10 85 0 50 4 85 10 85 6 0 10
-35 10 -85z m130 60 c0 -22 3 -25 24 -19 36 9 56 -19 56 -77 0 -66 -18 -63
-22 4 -3 48 -5 52 -28 52 -23 0 -25 -4 -28 -52 -5 -86 -22 -60 -22 32 0 50 4
85 10 85 6 0 10 -11 10 -25z m-2700 -5 c0 -12 7 -20 18 -21 16 -1 16 -2 0 -6
-14 -3 -18 -15 -18 -48 0 -31 5 -47 18 -55 15 -9 14 -10 -8 -8 -22 3 -25 8
-28 53 -2 27 -9 53 -15 57 -9 6 -9 8 1 8 6 0 12 9 12 20 0 11 5 20 10 20 6 0
10 -9 10 -20z m2630 -1 c0 -11 4 -18 9 -14 5 3 12 1 16 -5 3 -5 -1 -10 -9 -10
-24 0 -22 -85 2 -100 15 -9 14 -10 -8 -8 -23 3 -25 8 -28 56 -2 28 -7 52 -13
52 -5 0 -9 5 -9 11 0 5 5 7 10 4 6 -3 10 3 10 14 0 12 5 21 10 21 6 0 10 -9
10 -21z m-3220 -29 c43 -43 12 -115 -46 -108 -56 6 -72 97 -21 118 34 13 45
12 67 -10z m121 10 c16 -9 19 -21 18 -68 l-2 -57 -6 47 c-8 58 -24 77 -49 62
-11 -7 -18 -27 -20 -58 -5 -68 -22 -56 -22 15 0 50 3 60 15 56 8 -4 17 -2 20
3 8 13 22 13 46 0z m89 0 c21 14 28 12 50 -10 21 -21 29 -110 10 -110 -5 0
-10 20 -10 44 0 86 -62 89 -68 2 -4 -66 -22 -57 -22 12 0 57 8 82 20 63 3 -6
11 -6 20 -1z m180 -10 c34 -34 26 -50 -25 -50 -48 0 -59 -16 -29 -41 12 -10
20 -10 35 -1 27 17 44 16 29 -3 -18 -22 -77 -19 -90 4 -18 34 -12 78 12 95 30
21 44 20 68 -4z m128 4 c12 -8 19 -20 16 -26 -4 -7 -10 -5 -16 6 -21 38 -72 8
-66 -40 4 -39 31 -53 57 -29 24 21 40 13 21 -10 -18 -22 -77 -19 -90 4 -16 31
-12 69 10 91 24 24 38 25 68 4z m265 4 c15 1 17 -9 17 -67 0 -75 -11 -93 -55
-93 -24 0 -60 20 -51 29 2 3 14 0 26 -7 29 -15 60 -4 60 23 0 16 -3 18 -12 9
-30 -30 -78 3 -78 54 0 36 34 69 60 58 8 -4 23 -6 33 -6z m238 2 c13 -8 25 -7
39 0 14 8 26 8 40 0 16 -9 20 -21 20 -65 0 -70 -18 -72 -22 -2 -3 44 -6 52
-23 52 -17 0 -20 -8 -23 -52 -4 -63 -22 -71 -22 -10 0 55 -13 76 -37 61 -12
-7 -19 -26 -21 -58 -5 -68 -22 -56 -22 15 0 50 3 60 15 56 8 -4 17 -2 20 3 8
13 12 12 36 0z m258 1 c9 -6 23 -5 37 1 38 18 54 -4 52 -71 -1 -36 -2 -44 -5
-21 -7 70 -12 81 -36 78 -19 -3 -22 -10 -25 -55 -4 -68 -22 -69 -22 -3 0 37
-4 52 -16 57 -23 9 -37 -12 -45 -65 l-6 -47 -2 63 c0 35 3 61 7 58 4 -2 14 -1
22 5 18 11 22 11 39 0z m211 -11 c34 -34 26 -50 -25 -50 -38 0 -45 -3 -45 -19
0 -24 36 -37 56 -20 16 13 30 6 19 -10 -9 -15 -68 -14 -83 1 -21 21 -15 85 10
102 30 21 44 20 68 -4z m119 11 c9 -6 23 -5 37 1 37 17 54 -5 54 -68 0 -69
-18 -70 -22 -1 -3 44 -6 52 -23 52 -17 0 -20 -8 -23 -52 -4 -68 -22 -69 -22
-3 0 36 -4 52 -15 56 -26 10 -45 -16 -45 -62 0 -24 -4 -44 -10 -44 -6 0 -10
27 -10 61 0 50 3 60 15 56 8 -4 17 -2 20 3 8 12 26 12 44 1z m339 -7 c12 -8
22 -24 22 -35 0 -16 -7 -19 -45 -19 -48 0 -59 -16 -30 -40 12 -10 21 -10 41
-1 33 15 39 14 24 -4 -16 -20 -64 -19 -84 1 -22 22 -20 70 4 94 24 24 38 25
68 4z m112 7 c0 -5 -9 -11 -20 -14 -25 -7 -29 -57 -4 -57 9 0 32 -9 51 -21 33
-20 63 -20 63 1 0 5 -15 16 -34 24 -44 18 -52 33 -30 57 22 24 36 24 65 -1 26
-21 20 -27 -10 -8 -19 12 -51 5 -51 -10 0 -5 18 -16 40 -25 60 -23 48 -67 -19
-69 l-31 -1 0 -64 c0 -34 -4 -63 -10 -63 -5 0 -12 -11 -16 -25 -3 -14 -11 -25
-16 -25 -6 0 -7 11 -4 24 4 16 -3 42 -20 76 -23 46 -25 58 -19 125 8 77 6 74
58 84 4 0 7 -3 7 -8z m1031 -1 c15 -9 19 -22 19 -64 l0 -54 -47 2 c-37 1 -48
5 -51 19 -5 26 16 47 49 47 19 0 29 5 29 15 0 21 -29 31 -51 16 -11 -6 -19 -7
-19 -2 0 10 28 30 43 31 5 0 17 -5 28 -10z m-2231 -56 l17 -49 17 53 c10 28
22 52 28 52 6 0 8 -6 5 -12 -2 -7 -15 -41 -27 -76 -22 -61 -52 -94 -65 -72 -3
5 0 10 8 10 26 0 27 27 2 90 -14 34 -19 60 -13 58 7 -3 19 -26 28 -54z m755
-117 c17 -2 4 -5 -27 -6 -33 0 -58 3 -58 9 0 6 7 10 15 10 8 0 15 5 15 12 0 7
5 5 13 -4 6 -9 26 -19 42 -21z m-2181 -24 c9 -33 31 -44 38 -21 3 9 17 3 42
-17 21 -17 48 -36 60 -42 17 -11 18 -13 4 -13 -10 0 -18 -5 -18 -11 0 -5 -4
-7 -10 -4 -5 3 -10 2 -10 -3 0 -5 -3 -24 -7 -42 -4 -22 -3 -31 4 -27 22 14 37
-22 25 -59 -10 -32 -9 -36 12 -46 25 -11 60 -73 50 -89 -11 -18 -36 13 -29 38
3 13 1 23 -5 23 -5 0 -10 -4 -10 -10 0 -15 -30 -12 -30 3 -1 16 -35 57 -49 57
-6 0 -11 8 -11 19 0 15 -27 34 -50 33 -3 0 -11 7 -19 15 -12 13 -11 14 6 9 18
-6 20 -3 15 20 -3 19 -1 25 7 20 6 -4 11 -3 11 1 0 5 -10 13 -22 18 -13 6 -24
17 -24 25 -1 8 -2 20 -3 27 0 6 -11 13 -23 15 -18 2 -24 11 -26 37 -3 32 -2
34 14 20 16 -13 17 -12 10 14 -6 25 -4 28 16 25 15 -2 25 -13 32 -35z m2456
17 c0 -5 -4 -10 -10 -10 -5 0 -10 5 -10 10 0 6 5 10 10 10 6 0 10 -4 10 -10z
m65 0 c3 -5 1 -10 -4 -10 -6 0 -11 5 -11 10 0 6 2 10 4 10 3 0 8 -4 11 -10z
m-2800 -10 c21 0 43 -53 37 -91 -7 -51 -51 -107 -82 -104 -29 2 -81 25 -92 40
-12 17 -7 98 9 123 10 16 20 21 37 16 14 -3 27 1 36 11 7 9 20 13 27 10 8 -3
21 -5 28 -5z m925 -70 c0 -28 1 -29 25 -18 39 18 65 -12 65 -74 0 -26 -4 -48
-10 -48 -5 0 -10 18 -10 39 0 51 -8 71 -29 71 -28 0 -41 -21 -41 -67 0 -24 -4
-43 -10 -43 -6 0 -10 35 -10 85 0 50 4 85 10 85 6 0 10 -13 10 -30z m380 20
c0 -5 -4 -10 -10 -10 -5 0 -10 5 -10 10 0 6 5 10 10 10 6 0 10 -4 10 -10z
m1100 -40 c40 26 70 -4 70 -71 0 -66 -18 -63 -22 3 -2 43 -7 54 -22 56 -50 10
-50 -57 0 -195 22 -61 30 -73 48 -73 12 0 27 -5 34 -12 17 -17 52 16 45 43 -5
19 12 28 19 9 2 -5 32 8 68 30 36 22 84 45 108 51 23 7 45 15 48 20 7 12 -15
51 -38 67 -10 7 -18 18 -18 24 0 6 7 5 16 -3 15 -12 16 -10 10 19 -5 21 -4 32
3 32 6 0 11 -6 11 -14 0 -8 5 -27 11 -43 l12 -28 12 39 c16 56 32 55 48 -1
l15 -48 12 48 c7 26 16 50 21 53 13 8 11 -16 -7 -75 -17 -60 -34 -62 -47 -8
-5 20 -13 37 -17 37 -13 0 -24 -59 -21 -111 1 -25 -3 -75 -9 -111 -12 -78 5
-152 45 -186 34 -30 44 -28 89 18 43 44 56 48 78 23 25 -29 29 -53 13 -82 -13
-27 -17 -28 -76 -26 -49 1 -65 -2 -79 -18 -34 -36 -68 -47 -128 -40 -31 3 -66
12 -77 19 -11 8 -29 14 -42 14 -12 0 -26 6 -30 13 -4 8 -21 22 -37 33 l-29 18
5 -75 c4 -42 13 -104 22 -140 9 -35 24 -121 34 -191 17 -119 20 -128 49 -152
23 -19 29 -32 25 -51 -6 -32 -16 -32 -31 1 -6 15 -14 24 -17 21 -6 -6 19 -157
46 -272 30 -130 59 -273 60 -294 0 -23 -1 -23 -22 7 -13 17 -49 66 -82 107
-64 84 -116 178 -116 213 0 24 19 29 39 10 10 -11 12 -8 11 12 -4 51 0 70 16
70 20 0 13 24 -9 28 -10 2 -17 -3 -17 -13 0 -13 -4 -14 -21 -4 l-21 11 21 22
21 23 -20 18 c-15 14 -17 21 -8 26 9 6 9 13 0 34 -10 21 -10 30 -1 42 10 11 8
15 -9 20 -32 8 -27 23 6 20 38 -4 52 -15 52 -38 0 -10 7 -19 15 -19 11 0 13 4
6 18 -5 9 -12 25 -15 34 -3 11 -20 20 -46 24 -43 7 -60 21 -40 34 9 6 9 9 0
15 -6 4 -9 14 -6 22 3 8 1 11 -4 8 -13 -8 -13 65 -1 84 6 10 5 19 -3 25 -7 6
-17 23 -24 38 -10 25 -9 27 19 33 16 4 29 11 29 17 0 6 -6 8 -14 5 -17 -7 -51
31 -70 78 -8 19 -22 35 -30 35 -8 0 -20 9 -26 20 -9 16 -8 20 5 20 9 0 14 -4
10 -9 -3 -5 -1 -12 5 -16 5 -3 10 -4 10 -1 0 2 3 11 6 20 3 9 1 16 -6 16 -12
0 -40 24 -40 34 0 3 7 6 15 6 8 0 15 7 15 15 0 8 -7 15 -15 15 -8 0 -15 9 -15
20 0 13 -7 20 -19 20 -11 0 -27 10 -35 22 -18 25 -22 108 -6 108 6 0 10 -18
10 -39 0 -51 8 -71 30 -71 15 0 18 18 24 173 7 176 4 207 -20 207 -22 0 -19
-86 4 -100 15 -9 14 -10 -8 -8 -22 3 -25 8 -28 53 -2 27 -7 52 -11 55 -4 3 -1
16 6 30 13 25 13 25 19 3 3 -11 15 -23 25 -26 16 -4 21 1 27 26 l6 32 6 -32
c4 -26 8 -31 20 -23z m560 40 c0 -5 -4 -10 -10 -10 -5 0 -10 5 -10 10 0 6 5
10 10 10 6 0 10 -4 10 -10z m140 -40 c40 26 70 -4 70 -71 0 -66 -18 -63 -22 4
-3 45 -6 52 -25 55 -29 4 -46 -28 -37 -73 4 -21 2 -35 -4 -35 -15 0 -18 27
-13 105 3 52 6 62 10 38 5 -26 9 -31 21 -23z m120 40 c0 -5 -4 -10 -10 -10 -5
0 -10 5 -10 10 0 6 5 10 10 10 6 0 10 -4 10 -10z m320 -15 c0 -22 3 -25 24
-19 36 9 56 -19 56 -77 0 -66 -18 -63 -22 4 -3 48 -5 52 -28 52 -23 0 -25 -4
-28 -52 -5 -86 -22 -60 -22 32 0 50 4 85 10 85 6 0 10 -11 10 -25z m250 15 c0
-5 -4 -10 -10 -10 -5 0 -10 5 -10 10 0 6 5 10 10 10 6 0 10 -4 10 -10z m200
-6 c0 -2 -16 -4 -36 -4 -19 0 -33 4 -30 8 5 8 66 4 66 -4z m-3140 -14 c0 -12
7 -20 18 -21 16 -1 16 -2 0 -6 -14 -3 -18 -15 -18 -48 0 -31 5 -47 18 -55 15
-9 14 -10 -8 -8 -22 3 -25 8 -28 53 -2 27 -9 53 -15 57 -9 6 -9 8 1 8 6 0 12
9 12 20 0 11 5 20 10 20 6 0 10 -9 10 -20z m758 -17 c14 -12 14 -13 -1 -13
-23 0 -24 -72 -1 -94 14 -15 14 -16 -4 -16 -22 0 -31 26 -34 96 -1 44 12 80
20 54 2 -8 11 -21 20 -27z m250 0 c14 -12 14 -13 -1 -13 -23 0 -24 -72 -1 -94
14 -15 14 -16 -4 -16 -22 0 -31 26 -34 96 -1 44 12 80 20 54 2 -8 11 -21 20
-27z m1162 11 c0 -8 8 -15 18 -15 16 -1 16 -2 0 -6 -14 -3 -18 -15 -18 -48 0
-31 5 -47 18 -55 15 -9 14 -10 -8 -8 -23 3 -25 8 -28 56 -2 28 -7 52 -12 52
-4 0 -3 11 3 24 12 25 27 25 27 0z m458 -11 c14 -12 14 -13 -1 -13 -25 0 -24
-85 1 -99 15 -9 15 -10 -4 -11 -26 0 -34 17 -34 71 0 24 -5 39 -12 39 -9 0 -9
3 -2 8 6 4 14 16 18 27 7 16 9 17 13 5 3 -8 12 -21 21 -27z m625 30 c35 -9 15
-18 -33 -15 -27 2 -50 8 -50 13 0 9 49 10 83 2z m-2963 -92 l0 -58 -45 -1
c-35 -2 -46 2 -55 17 -13 25 -13 101 0 101 6 0 10 -19 10 -43 0 -39 13 -67 31
-67 21 0 39 35 39 76 0 28 4 43 10 39 6 -3 10 -32 10 -64z m105 49 c20 -22 14
-26 -14 -8 -19 12 -51 5 -51 -11 0 -5 16 -15 36 -21 40 -14 52 -33 34 -55 -14
-17 -76 -20 -85 -4 -11 16 3 23 19 10 15 -13 56 -6 56 9 0 5 -17 17 -37 27
-43 21 -50 35 -28 57 22 22 48 20 70 -4z m163 4 c17 -12 22 -25 22 -63 l0 -48
-45 -1 c-35 -2 -46 2 -55 17 -13 26 11 51 51 51 19 0 29 5 29 15 0 22 -29 30
-52 16 -27 -16 -38 -3 -14 15 25 18 36 18 64 -2z m113 6 c10 -6 19 -15 19 -20
0 -6 -8 -5 -19 1 -19 13 -51 6 -51 -10 0 -5 15 -15 34 -21 38 -12 52 -35 35
-56 -13 -16 -75 -19 -84 -3 -11 16 3 23 19 10 15 -13 56 -6 56 9 0 5 -17 17
-37 27 -43 21 -50 35 -28 57 19 19 29 20 56 6z m195 -4 c10 -8 15 -18 11 -22
-4 -5 -12 -2 -16 5 -11 17 -46 10 -46 -8 0 -8 13 -18 29 -22 36 -10 48 -27 35
-51 -11 -20 -73 -26 -84 -7 -11 17 2 21 24 7 18 -11 23 -10 38 4 14 14 14 18
2 22 -62 22 -69 27 -69 45 0 19 23 40 46 41 5 0 19 -6 30 -14z m264 -6 c22
-22 26 -60 10 -91 -12 -22 -68 -27 -88 -7 -21 21 -15 85 10 102 30 21 44 20
68 -4z m133 8 c16 1 18 -7 15 -71 -3 -68 -5 -73 -31 -85 -24 -12 -31 -11 -53
3 -30 20 -25 32 6 15 11 -6 29 -8 40 -5 15 5 18 15 17 62 -2 59 -19 82 -51 70
-13 -5 -16 -16 -14 -44 3 -33 7 -38 31 -41 28 -3 28 -22 0 -22 -51 0 -73 85
-31 115 13 8 30 12 38 9 8 -4 23 -6 33 -6z m125 -4 c12 -8 22 -24 22 -35 0
-16 -7 -19 -39 -19 -46 0 -58 -12 -35 -34 18 -18 40 -21 49 -6 3 6 11 10 17
10 7 0 6 -6 -2 -15 -19 -23 -66 -19 -84 7 -22 32 -20 55 9 83 28 29 33 30 63
9z m339 1 c11 -8 23 -24 26 -35 5 -18 0 -20 -38 -20 -50 0 -62 -11 -39 -34 18
-19 36 -20 52 -4 13 13 27 5 17 -11 -10 -17 -71 -13 -85 5 -21 25 -16 75 9 96
28 22 31 22 58 3z m113 6 c0 -5 -9 -11 -20 -14 -17 -4 -20 -14 -20 -56 0 -28
-4 -51 -10 -51 -6 0 -10 26 -10 59 0 63 -2 60 53 70 4 0 7 -3 7 -8z m270 -56
c0 -37 -4 -65 -10 -65 -11 0 -14 113 -3 123 12 13 13 7 13 -58z m374 49 c10
-10 16 -33 16 -65 0 -66 -18 -63 -22 4 -3 48 -5 52 -28 52 -23 0 -25 -4 -28
-52 -4 -73 -22 -67 -22 8 0 50 3 60 15 56 8 -4 17 -2 20 3 9 15 32 12 49 -6z
m394 0 c15 -10 22 -24 20 -37 -3 -19 -9 -21 -45 -19 -32 3 -43 0 -43 -11 0
-27 28 -41 56 -28 33 15 39 14 24 -4 -17 -20 -59 -19 -82 2 -24 21 -23 68 2
93 24 24 38 25 68 4z m155 9 c4 -3 -3 -11 -16 -17 -17 -9 -23 -21 -25 -59 -4
-69 -22 -58 -22 14 0 50 3 60 15 56 8 -4 17 -2 20 3 7 12 19 13 28 3z m-2583
-63 c0 -33 -4 -60 -10 -60 -6 0 -10 27 -10 60 0 33 4 60 10 60 6 0 10 -27 10
-60z m1920 0 c0 -33 -4 -60 -10 -60 -6 0 -10 27 -10 60 0 33 4 60 10 60 6 0
10 -27 10 -60z m570 0 c0 -33 -4 -60 -10 -60 -6 0 -10 27 -10 60 0 33 4 60 10
60 6 0 10 -27 10 -60z m-690 -137 c0 -7 25 -39 56 -70 66 -67 79 -82 86 -103
4 -8 14 -33 23 -55 15 -34 15 -37 1 -26 -8 7 -20 10 -26 6 -6 -4 -22 1 -36 10
-21 13 -25 23 -22 46 4 23 -1 35 -20 50 -14 10 -33 19 -43 19 -9 0 -24 6 -31
13 -7 6 -30 20 -50 29 -21 10 -38 23 -38 29 0 6 -8 8 -19 4 -17 -5 -19 -2 -14
37 3 24 12 51 21 60 14 17 18 16 63 -10 27 -15 49 -33 49 -39z m-3093 -26 c3
-4 -2 -22 -11 -41 -14 -29 -14 -39 -4 -56 11 -17 11 -22 -2 -30 -26 -17 -38
-11 -71 30 -18 22 -38 40 -46 40 -28 0 1 49 37 63 17 7 88 2 97 -6z m1718 -73
c22 -22 11 -30 -16 -10 -35 24 -61 5 -57 -42 2 -30 7 -38 27 -40 13 -2 28 1
34 7 20 20 31 11 12 -9 -37 -41 -95 -13 -95 46 0 57 57 86 95 48z m123 4 c20
-25 18 -80 -4 -102 -52 -52 -127 41 -77 96 19 21 66 24 81 6z m128 1 c8 -7 14
-7 19 1 10 16 52 12 59 -6 10 -26 7 -114 -4 -114 -5 0 -10 24 -10 54 0 35 -5
56 -12 59 -27 9 -38 -6 -38 -53 0 -27 -4 -52 -10 -55 -6 -4 -10 13 -10 42 0
56 -14 77 -42 62 -14 -7 -18 -21 -18 -59 0 -28 -4 -50 -10 -50 -6 0 -10 28
-10 63 l0 64 37 1 c20 1 42 -3 49 -9z m190 0 c8 -7 14 -6 19 1 8 14 48 13 63
-2 14 -14 16 -118 2 -118 -5 0 -10 22 -10 48 0 55 -14 76 -42 61 -14 -7 -18
-21 -18 -60 0 -31 -4 -48 -10 -44 -5 3 -10 28 -10 55 0 31 -5 50 -14 53 -23 9
-36 -15 -36 -65 0 -26 -4 -48 -10 -48 -6 0 -10 28 -10 63 l0 64 32 1 c18 0 38
-4 44 -9z m-1569 -5 c-3 -3 -12 -4 -19 -1 -8 3 -5 6 6 6 11 1 17 -2 13 -5z
m-12 -44 c3 -5 1 -10 -4 -10 -6 0 -11 5 -11 10 0 6 2 10 4 10 3 0 8 -4 11 -10z
m-618 -129 c27 23 49 -2 66 -72 6 -23 3 -27 -20 -32 -36 -7 -52 1 -59 28 -3
13 -12 26 -20 29 -14 6 -19 37 -7 50 4 3 11 2 17 -4 6 -6 14 -6 23 1z m-202
-11 c-3 -5 -12 -10 -18 -10 -7 0 -6 4 3 10 19 12 23 12 15 0z m5 -40 c0 -5 -5
-10 -11 -10 -5 0 -7 5 -4 10 3 6 8 10 11 10 2 0 4 -4 4 -10z m-30 -44 c0 -14
-5 -28 -10 -31 -13 -8 -50 3 -50 15 0 5 6 7 14 4 8 -3 16 3 19 15 7 29 27 26
27 -3z m23 -100 c4 -10 1 -13 -9 -9 -15 6 -19 23 -5 23 5 0 11 -7 14 -14z
m222 -26 c3 -6 0 -17 -8 -25 -13 -12 -15 -12 -20 5 -7 27 14 43 28 20z m448
-7 c4 -3 2 -12 -3 -18 -12 -15 41 -41 65 -31 11 4 15 -1 15 -19 0 -15 6 -25
14 -25 7 0 22 -12 32 -27 10 -16 24 -35 32 -42 11 -12 13 -31 9 -83 -4 -42 -1
-94 8 -136 22 -105 65 -263 80 -297 51 -112 107 -280 118 -357 5 -33 3 -38
-14 -38 -11 0 -18 4 -14 9 9 15 -14 24 -30 11 -16 -13 -30 3 -21 25 8 22 -4
45 -23 45 -9 0 -22 13 -29 28 -6 16 -28 36 -47 45 -20 9 -45 33 -56 52 -12 19
-25 35 -29 35 -5 0 -10 10 -12 23 -2 13 -10 22 -21 22 -20 0 -49 49 -41 69 4
9 -7 19 -30 27 -27 10 -36 19 -36 36 0 19 -5 23 -29 23 -23 0 -28 4 -24 18 7
29 -43 82 -77 82 -15 0 -30 -6 -33 -14 -9 -23 -47 -16 -47 8 0 16 -3 17 -12 8
-7 -7 -21 -12 -33 -12 -12 0 -26 -5 -33 -12 -9 -9 -13 -7 -18 7 -4 9 -23 35
-43 56 -54 56 -51 93 12 152 30 28 46 31 110 20 29 -4 37 -10 32 -21 -3 -9 -1
-19 6 -22 18 -12 67 12 73 36 5 18 16 23 61 29 55 6 68 17 41 32 -20 11 -24
47 -6 48 8 1 23 5 33 9 14 7 15 11 6 23 -9 10 -14 11 -19 2 -4 -6 -13 -8 -19
-4 -9 5 -9 10 0 21 6 7 15 11 20 8 15 -9 34 45 21 58 -9 9 -8 15 1 27 10 14
10 14 -4 4 -9 -7 -19 -9 -24 -5 -4 4 -5 -4 -1 -18 4 -16 -1 -12 -14 13 -12 22
-19 42 -15 45 3 4 10 0 14 -7 11 -18 31 -5 31 20 0 19 11 25 23 12z m186 -22
c-15 -5 -22 6 -14 19 6 9 10 9 16 -1 5 -8 4 -15 -2 -18z m-909 -11 c0 -5 -5
-10 -11 -10 -5 0 -7 5 -4 10 3 6 8 10 11 10 2 0 4 -4 4 -10z m40 -10 c0 -13
-5 -18 -15 -14 -16 7 -19 17 -8 27 12 13 23 7 23 -13z m520 -265 c0 -9 -6 -12
-15 -9 -8 4 -12 10 -9 15 8 14 24 10 24 -6z m3668 -32 c-10 -2 -28 -2 -40 0
-13 2 -5 4 17 4 22 1 32 -1 23 -4z m-499 -119 c23 -19 31 -34 31 -57 l-1 -32
-44 50 c-25 27 -45 53 -45 57 0 16 29 7 59 -18z m-909 -95 c0 -5 -4 -9 -10 -9
-5 0 -10 7 -10 16 0 8 5 12 10 9 6 -3 10 -10 10 -16z m174 3 c2 -4 1 -23 -3
-42 l-8 -35 -12 28 c-6 16 -11 35 -11 43 0 15 25 20 34 6z m-2464 -32 c0 -5
-5 -10 -11 -10 -5 0 -7 5 -4 10 3 6 8 10 11 10 2 0 4 -4 4 -10z m2694 -61 c25
-42 54 -51 123 -38 32 6 81 9 108 6 50 -5 135 -34 135 -46 0 -3 -25 -19 -55
-35 -61 -32 -55 -33 -116 26 -15 14 -33 16 -89 14 -38 -2 -77 -9 -85 -16 -12
-10 -22 -9 -50 4 -38 18 -49 34 -60 84 -7 32 -6 32 32 32 33 0 42 -5 57 -31z
m-2648 -104 c-21 -16 -32 -13 -21 4 3 6 14 11 23 11 15 -1 15 -2 -2 -15z
m2465 -68 c5 -21 8 -44 6 -50 -6 -18 -33 42 -41 88 -6 37 -5 39 9 20 8 -11 20
-37 26 -58z m1242 34 c3 -14 0 -17 -14 -14 -11 3 -19 12 -19 19 0 21 27 17 33
-5z m-1083 -20 c-5 -11 -25 -36 -44 -56 -19 -20 -37 -43 -40 -52 -5 -13 -9
-14 -19 -4 -9 10 -8 15 6 25 9 7 17 18 17 24 0 17 60 82 76 82 11 0 12 -4 4
-19z m1010 -27 c0 -9 11 -27 24 -39 23 -21 23 -22 4 -45 l-19 -23 -40 39 c-44
43 -47 65 -9 75 38 11 40 10 40 -7z m-525 -4 c9 -15 -13 -40 -35 -40 -10 0
-23 7 -30 15 -10 12 -8 16 11 24 32 13 47 13 54 1z m-3251 -46 c28 -28 33 -40
25 -53 -5 -9 -20 -34 -33 -56 -13 -22 -29 -41 -35 -41 -24 -3 -24 -4 -7 -17
17 -12 17 -14 2 -20 -9 -4 -16 -2 -16 3 0 6 -6 10 -12 10 -8 0 -14 18 -16 47
-2 26 -7 53 -11 61 -7 13 5 62 22 90 14 22 45 13 81 -24z m-294 -53 c0 -5 -9
-13 -20 -16 -21 -7 -28 -25 -10 -25 6 0 10 -6 9 -12 -3 -28 2 -38 21 -38 11 0
20 -7 20 -15 0 -8 4 -15 9 -15 4 0 6 -11 3 -25 -3 -17 0 -25 9 -25 8 0 0 -9
-17 -20 -46 -29 -64 -18 -60 36 2 34 0 45 -14 49 -13 4 -17 14 -15 38 2 18 3
42 4 55 1 18 7 22 31 22 17 0 30 -4 30 -9z m2831 -13 c1 -7 1 -18 0 -24 -1 -6
10 -16 23 -23 20 -11 30 -25 54 -73 2 -5 -17 -8 -42 -8 -39 0 -46 3 -46 19 0
11 -8 34 -17 51 -14 25 -15 34 -5 37 6 3 12 11 12 19 0 17 20 19 21 2z m-2807
-26 c2 -4 0 -14 -5 -22 -8 -13 -10 -13 -18 0 -10 15 -6 30 9 30 5 0 11 -4 14
-8z m-165 -323 c-9 -17 -13 -19 -20 -8 -7 12 3 22 29 28 1 1 -2 -9 -9 -20z
m2231 -159 l0 -60 35 0 c24 0 35 -5 35 -15 0 -11 -12 -15 -50 -15 l-50 0 0 75
c0 60 3 75 15 75 12 0 15 -13 15 -60z m205 40 c45 -50 9 -134 -57 -132 -59 2
-90 76 -52 130 20 30 83 31 109 2z m160 -2 c14 -21 14 -23 -1 -26 -9 -2 -21 1
-27 7 -33 33 -81 -15 -58 -58 7 -11 20 -21 31 -21 24 0 35 16 15 24 -27 10
-15 26 20 26 28 0 35 -4 35 -19 0 -55 -77 -85 -120 -46 -25 23 -27 90 -3 117
24 27 87 24 108 -4z m75 -53 c0 -68 -2 -75 -20 -75 -18 0 -20 7 -20 75 0 68 2
75 20 75 18 0 20 -7 20 -75z m87 27 l33 -47 0 48 c0 35 4 47 15 47 12 0 15
-15 15 -75 0 -90 -15 -98 -57 -33 l-28 42 -3 -42 c-3 -34 -7 -42 -23 -42 -17
0 -19 7 -19 75 0 65 2 75 18 75 9 0 32 -22 49 -48z m552 -530 c24 -59 62 -146
85 -194 l41 -87 650 -3 c640 -3 651 -3 708 -25 121 -46 209 -139 248 -262 24
-80 24 -142 -1 -223 -39 -127 -151 -238 -272 -269 -79 -21 -4437 -21 -4516 0
-75 19 -164 82 -212 149 -46 64 -80 162 -80 232 0 121 75 258 180 328 113 76
31 72 1563 72 l1365 0 16 41 c15 38 15 43 1 66 -9 13 -27 28 -40 33 -33 13
-45 73 -20 100 10 11 15 23 12 26 -3 4 -2 15 4 25 7 14 6 25 -6 41 -34 49 -21
55 130 57 l100 1 44 -108z m189 72 c4 -33 -11 -24 -23 15 -5 17 -4 22 6 19 8
-3 15 -18 17 -34z m1197 -292 c-3 -3 -11 0 -18 7 -9 10 -8 11 6 5 10 -3 15 -9
12 -12z m-895 -881 c0 -18 -101 -132 -111 -126 -9 6 46 83 84 118 22 19 27 21
27 8z m81 -38 c-5 -10 -21 -29 -36 -43 l-28 -25 13 25 c16 32 40 60 52 60 5 0
4 -8 -1 -17z m1099 -228 c13 -16 6 -35 -15 -35 -18 0 -26 15 -19 34 8 20 18
20 34 1z m-1562 -177 c16 -16 15 -23 -4 -42 -14 -14 -109 -16 -895 -16 -588 0
-887 3 -900 10 -19 10 -26 40 -12 53 3 4 410 7 903 7 683 0 899 -3 908 -12z"/>
<path d="M2585 9600 c-3 -5 -1 -10 4 -10 6 0 11 5 11 10 0 6 -2 10 -4 10 -3 0
-8 -4 -11 -10z"/>
<path d="M2548 9593 c7 -3 16 -2 19 1 4 3 -2 6 -13 5 -11 0 -14 -3 -6 -6z"/>
<path d="M1967 9532 c-20 -22 -22 -53 -5 -70 20 -20 40 -14 36 11 -2 16 3 23
20 25 26 4 28 15 6 36 -20 21 -37 20 -57 -2z"/>
<path d="M2160 9520 c0 -15 7 -20 25 -20 18 0 25 5 25 20 0 15 -7 20 -25 20
-18 0 -25 -5 -25 -20z"/>
<path d="M2351 9522 c-16 -30 -14 -42 9 -42 21 0 27 24 11 49 -7 11 -11 10
-20 -7z"/>
<path d="M2518 9494 c-4 -53 9 -64 48 -44 43 24 27 90 -22 90 -19 0 -22 -6
-26 -46z"/>
<path d="M2780 9530 c0 -5 9 -10 20 -10 11 0 20 5 20 10 0 6 -9 10 -20 10 -11
0 -20 -4 -20 -10z"/>
<path d="M2240 8199 c0 -5 5 -7 10 -4 6 3 10 8 10 11 0 2 -4 4 -10 4 -5 0 -10
-5 -10 -11z"/>
<path d="M1495 7720 c3 -5 10 -10 16 -10 5 0 9 5 9 10 0 6 -7 10 -16 10 -8 0
-12 -4 -9 -10z"/>
<path d="M2845 6580 c-3 -5 -1 -10 4 -10 6 0 11 5 11 10 0 6 -2 10 -4 10 -3 0
-8 -4 -11 -10z"/>
<path d="M501 5351 c-19 -35 -13 -79 13 -96 47 -31 91 23 70 84 -12 34 -67 43
-83 12z"/>
<path d="M2443 5325 c-11 -33 -10 -35 12 -35 23 0 23 2 13 33 -6 17 -12 33
-13 34 -1 2 -6 -13 -12 -32z"/>
<path d="M4273 5330 c-10 -35 -5 -44 20 -38 12 2 12 9 2 38 l-12 35 -10 -35z"/>
<path d="M3458 4663 c6 -2 18 -2 25 0 6 3 1 5 -13 5 -14 0 -19 -2 -12 -5z"/>
<path d="M3707 4624 c-13 -13 -7 -61 9 -75 24 -20 49 1 49 42 0 29 -4 34 -25
37 -14 2 -29 0 -33 -4z"/>
<path d="M3458 4583 c-22 -6 -24 -32 -3 -39 18 -7 45 12 45 32 0 14 -10 16
-42 7z"/>
<path d="M2942 4628 c-19 -19 -15 -66 7 -78 40 -21 69 17 51 66 -10 26 -38 32
-58 12z"/>
<path d="M4140 4615 c0 -8 4 -15 10 -15 5 0 7 7 4 15 -4 8 -8 15 -10 15 -2 0
-4 -7 -4 -15z"/>
<path d="M4040 4590 c0 -5 5 -10 11 -10 5 0 7 5 4 10 -3 6 -8 10 -11 10 -2 0
-4 -4 -4 -10z"/>
<path d="M1110 4620 c-23 -44 20 -99 55 -70 18 15 20 61 3 78 -18 18 -46 14
-58 -8z"/>
<path d="M1513 4633 c-28 -11 -13 -33 22 -33 37 0 43 8 23 28 -13 13 -24 14
-45 5z"/>
<path d="M1897 4633 c-14 -14 -7 -74 9 -80 37 -14 70 41 44 73 -13 15 -42 19
-53 7z"/>
<path d="M2607 4633 c-18 -17 -5 -33 28 -33 37 0 43 8 23 28 -13 13 -41 16
-51 5z"/>
<path d="M3072 4628 c-20 -20 -14 -28 24 -28 28 0 35 3 32 18 -4 21 -39 27
-56 10z"/>
<path d="M4228 4583 c-22 -6 -24 -32 -3 -39 18 -7 45 12 45 32 0 14 -10 16
-42 7z"/>
<path d="M2807 4073 c-8 -7 14 -53 25 -53 14 0 9 48 -6 53 -8 3 -16 3 -19 0z"/>
<path d="M2860 3570 c6 -11 13 -20 15 -20 3 0 5 9 5 20 0 11 -7 20 -15 20 -13
0 -14 -4 -5 -20z"/>
<path d="M2881 3524 c0 -11 3 -14 6 -6 3 7 2 16 -1 19 -3 4 -6 -2 -5 -13z"/>
<path d="M2876 3318 c8 -28 12 -33 20 -25 9 8 -6 47 -17 47 -6 0 -7 -10 -3
-22z"/>
<path d="M2940 3120 c0 -5 5 -10 11 -10 5 0 7 5 4 10 -3 6 -8 10 -11 10 -2 0
-4 -4 -4 -10z"/>
<path d="M1696 4297 c-17 -12 -17 -14 -1 -27 19 -16 48 -3 53 24 4 20 -26 22
-52 3z"/>
<path d="M2249 4334 c-7 -20 -6 -32 6 -50 26 -40 65 -24 65 26 0 52 -53 70
-71 24z"/>
<path d="M2522 4348 c-20 -20 -14 -28 24 -28 28 0 35 3 32 18 -4 21 -39 27
-56 10z"/>
<path d="M2860 4340 c-10 -18 -8 -20 30 -20 38 0 40 2 30 20 -6 11 -19 20 -30
20 -11 0 -24 -9 -30 -20z"/>
<path d="M4012 4348 c-20 -20 -14 -28 24 -28 28 0 35 3 32 18 -4 21 -39 27
-56 10z"/>
<path d="M260 4130 c0 -5 5 -10 11 -10 5 0 7 5 4 10 -3 6 -8 10 -11 10 -2 0
-4 -4 -4 -10z"/>
<path d="M2128 4069 c-21 -12 -24 -59 -6 -77 20 -20 48 -14 60 13 9 19 8 29
-6 50 -18 28 -23 29 -48 14z"/>
<path d="M560 3285 c0 -8 2 -15 4 -15 2 0 6 7 10 15 3 8 1 15 -4 15 -6 0 -10
-7 -10 -15z"/>
<path d="M2404 2236 c-3 -8 -4 -27 -2 -43 2 -22 9 -29 30 -31 30 -4 44 23 34
64 -5 17 -13 24 -32 24 -13 0 -27 -6 -30 -14z"/>
<path d="M3120 1700 c0 -6 7 -10 15 -10 8 0 15 2 15 4 0 2 -7 6 -15 10 -8 3
-15 1 -15 -4z"/>
<path d="M3217 1633 c-26 -4 -28 -8 -28 -51 0 -26 0 -71 -1 -100 -1 -29 1 -55
4 -58 3 -2 55 -3 116 -2 l111 3 -52 67 c-29 36 -65 85 -81 107 -17 23 -32 40
-35 40 -3 -1 -18 -4 -34 -6z"/>
<path d="M2320 1095 c0 -9 5 -15 11 -13 6 2 11 8 11 13 0 5 -5 11 -11 13 -6 2
-11 -4 -11 -13z"/>
<path d="M2196 1087 c-29 -21 -17 -58 23 -72 19 -6 37 -17 39 -23 6 -18 -28
-27 -49 -14 -24 16 -29 15 -29 -3 0 -8 11 -17 24 -21 86 -21 122 56 37 80 -33
9 -42 33 -16 42 8 4 22 1 30 -6 22 -19 41 -7 21 13 -21 20 -55 22 -80 4z"/>
<path d="M2689 1093 c-4 -35 5 -120 13 -130 15 -18 73 -16 89 3 18 21 19 125
2 131 -9 3 -13 -11 -13 -50 0 -103 -63 -107 -68 -3 -2 31 -7 56 -12 56 -6 0
-10 -3 -11 -7z"/>
<path d="M2320 1005 c0 -42 3 -55 15 -55 12 0 15 13 15 55 0 42 -3 55 -15 55
-12 0 -15 -13 -15 -55z"/>
<path d="M2374 1046 c-3 -8 -4 -29 -2 -48 3 -31 5 -33 41 -32 39 1 42 -2 28
-25 -6 -9 -18 -11 -42 -6 -30 7 -32 6 -20 -9 15 -18 44 -21 72 -6 16 9 19 22
19 73 l0 63 -45 2 c-31 1 -47 -3 -51 -12z m70 -21 c8 -22 -4 -45 -24 -45 -20
0 -32 23 -24 45 4 8 14 15 24 15 10 0 20 -7 24 -15z"/>
<path d="M2510 1003 c0 -29 5 -53 10 -53 6 0 10 15 10 33 0 41 13 62 34 54 11
-4 16 -19 16 -47 0 -29 4 -40 15 -40 11 0 15 11 15 36 0 57 -14 73 -60 71
l-40 -1 0 -53z"/>
<path d="M2840 984 c0 -59 3 -74 15 -74 9 0 15 10 15 26 0 15 4 23 11 19 22
-14 57 5 64 34 11 49 -8 70 -60 69 l-45 -1 0 -73z m75 45 c12 -19 -4 -61 -23
-57 -30 6 -28 68 2 68 8 0 18 -5 21 -11z"/>
<path d="M3366 10994 c-37 -47 -65 -88 -62 -91 4 -4 10 -2 14 3 80 92 141 174
130 174 -7 -1 -44 -39 -82 -86z"/>
<path d="M4770 11065 c13 -12 22 -12 65 -1 l50 14 -65 1 c-56 1 -62 -1 -50
-14z"/>
<path d="M1027 10923 c-20 -5 -47 -52 -47 -83 0 -24 18 -61 34 -72 36 -24 96
6 96 49 0 29 -34 56 -65 51 -17 -4 -25 -1 -25 9 0 20 29 28 51 15 25 -16 29
-15 29 3 0 12 -44 40 -53 34 -1 -1 -10 -3 -20 -6z m43 -103 c0 -24 -26 -38
-42 -22 -16 16 -2 42 22 42 13 0 20 -7 20 -20z"/>
<path d="M588 10906 c-26 -19 -24 -40 2 -26 19 10 20 8 20 -55 0 -51 3 -65 15
-65 12 0 15 16 15 80 0 70 -2 80 -17 80 -10 0 -26 -7 -35 -14z"/>
<path d="M688 10906 c-26 -19 -24 -40 2 -26 19 10 20 8 20 -55 0 -51 3 -65 15
-65 12 0 15 16 15 80 0 70 -2 80 -17 80 -10 0 -26 -7 -35 -14z"/>
<path d="M780 10885 c0 -10 7 -15 18 -13 21 4 19 22 -2 26 -10 2 -16 -3 -16
-13z"/>
<path d="M782 10803 c4 -21 33 -25 33 -3 0 8 -8 16 -18 18 -14 3 -18 -1 -15
-15z"/>
<path d="M4131 10800 c-46 -29 -28 -46 24 -24 44 18 98 14 125 -11 15 -14 19
-14 29 -1 18 22 -29 49 -92 53 -40 3 -60 -1 -86 -17z"/>
<path d="M3750 10690 c0 -23 4 -30 20 -30 16 0 20 7 20 30 0 23 -4 30 -20 30
-16 0 -20 -7 -20 -30z"/>
<path d="M2400 10499 c0 -5 5 -7 10 -4 6 3 10 8 10 11 0 2 -4 4 -10 4 -5 0
-10 -5 -10 -11z"/>
<path d="M2138 10053 c7 -3 16 -2 19 1 4 3 -2 6 -13 5 -11 0 -14 -3 -6 -6z"/>
<path d="M5113 8875 c0 -22 2 -30 4 -17 2 12 2 30 0 40 -3 9 -5 -1 -4 -23z"/>
<path d="M212 7028 c-22 -22 -14 -39 16 -32 36 9 37 11 22 29 -15 18 -22 19
-38 3z"/>
<path d="M290 5680 c0 -5 5 -10 11 -10 5 0 7 5 4 10 -3 6 -8 10 -11 10 -2 0
-4 -4 -4 -10z"/>
<path d="M230 5479 c0 -5 5 -7 10 -4 6 3 10 8 10 11 0 2 -4 4 -10 4 -5 0 -10
-5 -10 -11z"/>
<path d="M206 4973 c-11 -11 -6 -23 9 -23 8 0 15 4 15 9 0 13 -16 22 -24 14z"/>
<path d="M693 4692 c-9 -6 -9 -19 -2 -51 16 -71 24 -76 35 -23 8 39 7 51 -6
64 -9 9 -21 14 -27 10z"/>
<path d="M956 4635 c-9 -26 -7 -32 5 -12 6 10 9 21 6 23 -2 3 -7 -2 -11 -11z"/>
<path d="M985 4618 c-4 -9 -5 -27 -3 -40 2 -18 10 -23 33 -25 17 -1 22 1 12 3
-9 3 -15 10 -12 15 3 4 -1 21 -9 36 -12 23 -16 25 -21 11z"/>
<path d="M45 4570 c3 -5 8 -10 11 -10 2 0 4 5 4 10 0 6 -5 10 -11 10 -5 0 -7
-4 -4 -10z"/>
<path d="M984 4526 c11 -9 24 -16 30 -16 12 0 7 5 -24 19 -24 11 -24 11 -6 -3z"/>
<path d="M60 4500 c0 -5 5 -10 10 -10 6 0 10 5 10 10 0 6 -4 10 -10 10 -5 0
-10 -4 -10 -10z"/>
<path d="M98 4503 c7 -3 16 -2 19 1 4 3 -2 6 -13 5 -11 0 -14 -3 -6 -6z"/>
<path d="M909 4363 c-13 -16 -12 -17 4 -4 9 7 17 15 17 17 0 8 -8 3 -21 -13z"/>
<path d="M1022 4335 c0 -16 2 -22 5 -12 2 9 2 23 0 30 -3 6 -5 -1 -5 -18z"/>
<path d="M928 4323 c6 -2 18 -2 25 0 6 3 1 5 -13 5 -14 0 -19 -2 -12 -5z"/>
<path d="M1052 4280 c0 -14 2 -19 5 -12 2 6 2 18 0 25 -3 6 -5 1 -5 -13z"/>
<path d="M1000 3970 c-13 -9 -13 -11 0 -20 19 -12 35 -8 35 10 0 18 -16 22
-35 10z"/>
<path d="M880 3920 c0 -5 5 -10 10 -10 6 0 10 5 10 10 0 6 -4 10 -10 10 -5 0
-10 -4 -10 -10z"/>
<path d="M1010 3850 c0 -5 5 -10 11 -10 5 0 7 5 4 10 -3 6 -8 10 -11 10 -2 0
-4 -4 -4 -10z"/>
<path d="M955 3760 c-3 -5 1 -10 10 -10 9 0 13 5 10 10 -3 6 -8 10 -10 10 -2
0 -7 -4 -10 -10z"/>
</g>
</svg>
